<?xml version="1.0" encoding="UTF-8"?><svg id="Capa_2" xmlns="http://www.w3.org/2000/svg" viewBox="0 0 475.55 475.55"><defs><style>.cls-1{fill:#171614;}.cls-2{fill:#cec8bd;}</style></defs><g id="Icons_Black"><g id="Id"><rect class="cls-2" width="475.55" height="475.55" rx="90.04" ry="90.04"/></g><path class="cls-1" d="M81.94,140.9h99.53c17.16,1.43,33.98,6.35,44.45,20.78,12.31,16.95,12.5,47.22-3.8,61.73-3.29,2.93-7.36,4.74-10.71,7.53,17.13,5.42,28.08,21.47,29.23,39.16,2.58,39.81-24.89,64.3-63.52,64.53l-95.18-.02v-193.72ZM126.72,217.32c14.43-.7,29.73.93,44.07.02,12.16-.77,24.09-4.89,25.07-18.74,1.02-14.43-4.03-20.55-17.94-22.99-16.31-2.85-34.59-.19-51.2-1.13v42.83ZM126.72,301.04c14.79-.66,30.33.88,45.04.02,12.27-.71,23.66-4.71,27.05-17.72,5.3-20.34-4.68-32.61-25.11-33.91l-46.99.02v51.59Z"/><path class="cls-1" d="M393.45,269.4h-101.24c.79,7.63,1.9,14.78,6.22,21.28,12.11,18.26,46.65,18.33,56.33-2.79h36.75c-3.21,20.1-21.82,36.62-40.78,42.21-33.73,9.94-77.41-2.03-90.16-37.57-8.85-24.69-6.27-62.46,10.73-83.22,24.85-30.35,80.24-31.53,105.85-1.72,14.9,17.35,17.14,39.71,16.3,61.82ZM355.97,245.55c-.67-4.61-1.35-9.2-3.32-13.48-6.89-14.95-26.71-19.47-41.23-13.79-11.17,4.37-16.52,16.05-18.24,27.27h62.79Z"/><rect class="cls-1" x="285.4" y="148.69" width="77.88" height="19.47"/></g></svg>