<?xml version="1.0" encoding="UTF-8"?><svg id="Capa_2" xmlns="http://www.w3.org/2000/svg" viewBox="0 0 475.55 475.55"><defs><style>.cls-1{fill:#171614;fill-rule:evenodd;}.cls-2{fill:#cec8bd;}</style></defs><g id="Icons_Black"><rect class="cls-2" width="475.55" height="475.55" rx="90.04" ry="90.04"/><path class="cls-1" d="M227.69,128.37h-29.75c-16.43,0-29.75,13.32-29.75,29.75s13.32,29.75,29.75,29.75h29.75v-59.49ZM227.69,108.2h49.91c27.57,0,49.91,22.35,49.91,49.91,0,16.27-7.78,30.72-19.83,39.83,12.05,9.11,19.83,23.56,19.83,39.83,0,27.57-22.35,49.91-49.91,49.91-11.15,0-21.44-3.65-29.75-9.83v39.57c0,27.57-22.35,49.91-49.91,49.91s-49.91-22.35-49.91-49.91c0-16.27,7.78-30.72,19.83-39.83-12.04-9.11-19.83-23.56-19.83-39.83s7.78-30.72,19.83-39.83c-12.04-9.11-19.83-23.56-19.83-39.83,0-27.57,22.35-49.91,49.91-49.91h29.75ZM247.86,128.37v59.49h29.75c16.43,0,29.75-13.32,29.75-29.75s-13.32-29.75-29.75-29.75h-29.75ZM197.94,267.52h29.75v-59.49h-29.75c-16.43,0-29.75,13.32-29.75,29.75s13.25,29.68,29.63,29.75h.12ZM168.2,317.43c0-16.39,13.25-29.68,29.63-29.75h.12s29.75,0,29.75,0v29.75c0,16.43-13.32,29.75-29.75,29.75s-29.75-13.32-29.75-29.75ZM247.86,237.71c.03-16.4,13.34-29.69,29.75-29.69s29.75,13.32,29.75,29.75-13.32,29.75-29.75,29.75-29.71-13.29-29.75-29.69v-.12Z"/></g></svg>