<?xml version="1.0" encoding="UTF-8"?><svg id="Capa_2" xmlns="http://www.w3.org/2000/svg" viewBox="0 0 475.55 475.55"><defs><style>.cls-1{fill:#171614;}.cls-2{fill:#cec8bd;}</style></defs><g id="Icons_Black"><rect class="cls-2" width="475.55" height="475.55" rx="90.04" ry="90.04"/><path class="cls-1" d="M197.99,371.06c-.55,4.66-4.54,12.23-10.08,11.45s-20.39-8.5-25.67-11.43c-102.34-56.84-106.78-204.47-7.87-267.3,109.39-69.49,248.61,15.83,239.49,144.2-4.06,57.13-46.42,114.85-101.08,133.18-5.88,1.97-9.31,1.9-12.34-4.53-4.19-8.9-.7-35.7-1.73-47.24-1.37-15.43-15.62-38.33-32.41-40.05l22.5-2.96c19.82-3.98,38.47-13.12,49.4-30.67,20.27-.85,40.31,2.01,60.45,3.87l.66-6.62c-19.13-1.98-38.27-4.53-57.57-3.98l2.42-7.31,56.48.69v-6.62c-18.54-1.18-37.01-1.73-55.59-.66,1.61-11.5.97-22.23-3.85-32.87-.99-2.19-5.97-9.59-6.06-10.5-.28-2.87,3.59-14.38,3.95-19.17.41-5.51.47-21.65-4.91-24.85-3.26-1.94-14.07.75-17.93,2.01-7.58,2.47-13.83,7.09-20.49,11.23-18.99-7.82-39.74-8.97-59.78-4.81-2.8.58-15.24,4.89-16.18,4.74-1.39-.22-6.64-4.78-8.63-5.95-6.67-3.93-16.81-7.61-24.57-7.86-5.06-.16-6.26,1.3-7.95,6-3.02,8.42-1.58,19.23-.15,27.91.42,2.58,2.63,8.82,2.44,10.76-.11,1.09-5.05,8.29-6.06,10.5-4.8,10.53-6.32,22.07-4.52,33.53-18.04.37-36.39-1.04-54.17,1.42-.32,1.14-.23,6.3,1,6.57l16.41-1.4c12.79.17,25.59-.38,38.34.65.32,1.2,3.02,6.08.75,6-7.72-.1-15.48.11-23.17.67-3.82.28-31.16,2.67-32.09,3.99-.31.45,1.28,5.27.65,6.59,19.56-2.88,39.33-4.96,59.12-4.53,15.08,24.24,45.4,32.74,72.56,32.99l-6.85,2.73c-6.95,2.34-10.52,9.52-15.29,13.83-2.87,2.6-9.99,3.52-13.93,3.93-6.57.69-18.56,1.35-24.69-.44-13-3.81-22.19-25.37-34.22-26.05-9.84-.56.38,5.91,2.68,8.63,9.02,10.67,9.49,29.76,22.37,35.86.97.46,6.8,2.53,7.4,2.53h30.77v41.36Z"/></g></svg>