<?xml version="1.0" encoding="UTF-8"?><svg id="Capa_2" xmlns="http://www.w3.org/2000/svg" viewBox="0 0 28.21 30.9"><defs><style>.cls-1{fill:#e78383;}</style></defs><g id="Capa_1-2"><path class="cls-1" d="M10.54,27.02c0-1.82.71-3.49,1.58-4.99.87-1.51,1.43-2.77,1.43-4.2,0-.64-.32-.95-.72-.95-1.19,0-2.54,1.9-3.56,3.41-1.43,2.14-3.17,4.68-5.7,4.68-2.22,0-3.57-1.66-3.57-3.49,0-3.65,3.8-4.2,8-4.6,2.62-.24,4.2-.55,4.2-1.51,0-.87-2.06-1.19-4.28-1.43-4.12-.39-7.93-.95-7.93-4.52,0-1.82,1.35-3.48,3.57-3.48,2.54,0,4.28,2.37,5.63,4.59.95,1.51,2.45,3.49,3.64,3.49.4,0,.72-.32.72-.95,0-1.5-.64-2.77-1.43-4.2-.87-1.5-1.58-3.25-1.58-4.99,0-2.38,1.58-3.88,3.56-3.88s3.57,1.51,3.57,3.88c0,1.74-.79,3.49-1.58,4.99-.79,1.43-1.43,2.7-1.43,4.2,0,.64.24.95.64.95,1.19,0,2.69-1.98,3.65-3.49,1.43-2.22,3.17-4.59,5.7-4.59,2.14,0,3.57,1.66,3.57,3.48,0,3.57-3.88,4.12-8,4.52-2.14.24-4.2.55-4.2,1.43,0,.95,1.43,1.19,4.12,1.51,4.2.48,8.08.95,8.08,4.6,0,1.82-1.43,3.49-3.65,3.49-2.54,0-4.28-2.54-5.63-4.68-.95-1.5-2.46-3.41-3.65-3.41-.4,0-.64.32-.64.95,0,1.43.55,2.69,1.43,4.2.87,1.5,1.58,3.17,1.58,4.99,0,2.3-1.66,3.88-3.57,3.88s-3.56-1.58-3.56-3.88Z"/></g></svg>