<?xml version="1.0" encoding="UTF-8"?><svg id="Capa_2" xmlns="http://www.w3.org/2000/svg" viewBox="0 0 475.55 475.55"><defs><style>.cls-1{fill:#171614;}.cls-2{fill:#cec8bd;}</style></defs><g id="Icons_Black"><g id="Id"><rect class="cls-2" y="0" width="475.55" height="475.55" rx="90.04" ry="90.04"/><path class="cls-1" d="M176.18,328.74c0,2.07-.59,2.66-2.36,2.66h-31.02c-1.77,0-2.36-.89-2.36-2.66v-189.05c0-2.07.89-2.36,2.36-2.36h31.02c1.77,0,2.36.59,2.36,2.36v189.05Z"/><path class="cls-1" d="M206.02,259.92c0-42.83,31.9-77.1,83.89-77.1,4.14,0,7.68.3,12.7.89v-60.56c0-1.48.59-2.07,1.77-2.07h32.2c1.48,0,1.48.59,1.48,1.77v178.42c0,5.91.59,13.59,1.18,18.91,0,1.48-.3,2.07-1.77,2.66-19.2,8.27-38.11,11.52-55.83,11.52-42.83,0-75.62-24.81-75.62-74.44ZM302.61,214.72c-3.84-1.48-8.57-2.07-13.88-2.07-26.29,0-46.08,16.84-46.08,45.49,0,32.2,19.2,45.49,42.83,45.49,5.91,0,11.82-.59,17.13-2.36v-86.55Z"/></g></g></svg>