<?xml version="1.0" encoding="UTF-8"?><svg id="Capa_2" xmlns="http://www.w3.org/2000/svg" viewBox="0 0 475.55 475.55"><defs><style>.cls-1{fill:#171614;}.cls-2{fill:#cec8bd;}</style></defs><g id="Icons_Black"><g id="Id"><rect class="cls-2" width="475.55" height="475.55" rx="90.04" ry="90.04"/></g><path class="cls-1" d="M184.87,81.55c33.47-1.18,70.53-1.29,104-.23,61.67,1.95,99.62,23.75,104.48,89.47,2.67,36.1,1.84,80.69.72,117.22-1.9,61.97-23.28,100.27-89.47,105.16-36.1,2.67-80.69,1.84-117.22.72-32.91-1.01-62.16-4.99-84.62-31.2-17.6-20.53-19.49-44.07-20.55-69.91-1.63-39.71-3.32-90.37.7-129.53,6.19-60.34,46.47-79.74,101.97-81.7ZM188.98,109.65c-42.38,1.44-72.76,8.91-77.98,57.03-3.99,36.8-2.26,85.3-.66,122.64,2.03,47.51,12.1,71.97,64.06,75.75,35.92,2.61,78.96,1.52,115.1-.02,41.71-1.78,69.82-9.29,75.07-56.52,4.07-36.69,2.2-85.36.66-122.64-1.94-46.89-11.96-71.9-63.37-75.75-34.86-2.61-77.61-1.69-112.87-.49Z"/><path class="cls-1" d="M318.17,237.6c0,44.4-35.99,80.39-80.39,80.39s-80.39-35.99-80.39-80.39,35.99-80.39,80.39-80.39,80.39,35.99,80.39,80.39ZM289.81,237.61c0-28.73-23.29-52.03-52.03-52.03s-52.03,23.29-52.03,52.03,23.29,52.03,52.03,52.03,52.03-23.29,52.03-52.03Z"/><circle class="cls-1" cx="321.23" cy="154.16" r="18.86"/></g></svg>