<?xml version="1.0" encoding="UTF-8"?><svg id="Capa_2" xmlns="http://www.w3.org/2000/svg" viewBox="0 0 475.55 475.55"><defs><style>.cls-1{fill:#171614;}.cls-2{fill:#cec8bd;}</style></defs><g id="Icons_Black"><g id="Id"><rect class="cls-2" y="0" width="475.55" height="475.55" rx="90.04" ry="90.04"/></g><path class="cls-1" d="M245.89,334.64h-42.26c-.05,0-.71-.66-.71-.71v-141.42h40.61v20.3c1.05-.79,1.69-2.28,2.59-3.31,17.17-19.52,48.46-25.83,71.39-12.82,18.33,10.4,26.23,28.32,27.09,48.93,1.2,28.83-.97,58.49,0,87.4.1.48-.34,1.63-.73,1.63h-42.02c-.39,0-.84-1.14-.73-1.63-.64-24.85.71-49.86.52-74.64-.17-21.74-16.35-33.82-37.43-27-9.37,3.03-18.32,14.21-18.32,24.18v79.09Z"/><rect class="cls-1" x="134.43" y="192.51" width="44.43" height="142.13"/><circle class="cls-1" cx="156.65" cy="146.26" r="25.18"/></g></svg>