<?xml version="1.0" encoding="UTF-8"?><svg id="Capa_2" xmlns="http://www.w3.org/2000/svg" viewBox="0 0 475.55 475.55"><defs><style>.cls-1{fill:#171614;}.cls-2{fill:#cec8bd;}</style></defs><g id="Icons_Black"><rect class="cls-2" width="475.55" height="475.55" rx="90.04" ry="90.04"/><path class="cls-1" d="M345.5,141.74l-50.37-24.23c-5.86-2.83-12.83-1.64-17.42,2.95l-96.48,88.03-42.05-31.88c-3.9-2.99-9.4-2.75-13.03.56l-13.47,12.27c-4.46,4.02-4.46,11.04-.04,15.07l36.47,33.28-36.47,33.28c-4.42,4.02-4.42,11.04.04,15.07l13.47,12.27c3.67,3.31,9.13,3.55,13.03.56l42.05-31.92,96.53,88.07c4.55,4.58,11.52,5.78,17.38,2.95l50.42-24.27c5.3-2.55,8.65-7.89,8.65-13.79v-164.47c0-5.86-3.39-11.24-8.68-13.79l-.02.02ZM293.01,293.38l-73.25-55.6,73.25-55.6v111.2Z"/></g></svg>